<svg xmlns="http://www.w3.org/2000/svg" width="70" height="70" fill="none">
<path fill="#5EAA21" d="M37.804 19.166 34.958 9.97c-.016-.081-.049-.146-.065-.227l-.032-.097C33.316 4.992 28.893 1.63 23.689 1.63a11.76 11.76 0 0 0-9.806 5.237l1.708 1.697a8.737 8.737 0 0 1 1.3-1.697l.326-.324c.098-.096.195-.177.293-.274a9.42 9.42 0 0 1 6.195-2.311c5.204 0 9.416 4.185 9.416 9.357s-4.212 9.358-9.416 9.358a9.377 9.377 0 0 1-8.098-4.606L13.9 19.764A11.782 11.782 0 0 0 23.705 25h11.757v-5.85h2.342v.016Z"/>
<path fill="#5EAA21" fill-rule="evenodd" d="M28.697 8.37a7.048 7.048 0 0 0-9.935 0l-3.383 3.361-3.382-3.361a7.048 7.048 0 0 0-9.936 0 6.944 6.944 0 0 0 0 9.874 7.048 7.048 0 0 0 9.936 0l3.382-3.361 3.383 3.361a7.048 7.048 0 0 0 9.935 0c2.732-2.715 2.732-7.143 0-9.874Zm-18.294 8.307c-1.87 1.858-4.894 1.858-6.748 0-1.854-1.859-1.87-4.865 0-6.707 1.87-1.859 4.894-1.859 6.748 0l3.383 3.361-3.383 3.346Zm9.952 0c1.854 1.858 4.879 1.858 6.749 0a4.759 4.759 0 0 0 0-6.723c-1.854-1.859-4.879-1.859-6.749 0l-3.382 3.361 3.382 3.362Z" clip-rule="evenodd"/>
</svg>